<?xml version="1.0" encoding="utf-8"?>
<!-- Generator: Adobe Illustrator 24.2.3, SVG Export Plug-In . SVG Version: 6.00 Build 0)  -->
<svg version="1.1" id="Layer_1" xmlns="http://www.w3.org/2000/svg" xmlns:xlink="http://www.w3.org/1999/xlink" x="0px" y="0px"
	 viewBox="0 0 154.6 57.5" style="enable-background:new 0 0 154.6 57.5;" xml:space="preserve">
<style type="text/css">
	.st0{fill:#FFFFFF;}
	.st1{display:none;fill:#020202;}
</style>
<g id="Layer_2_1_">
	<g id="Layer_1-2">
		<path class="st0" d="M154.2,7.8h-3.4c-0.4,0.1-0.8,0.3-1.1,0.6l-12.9,17.1c-0.1,0.2-0.4,0.3-0.7,0.2c-0.1,0-0.1-0.1-0.2-0.2
			L124.1,8.4c-0.3-0.4-0.8-0.6-1.3-0.6H100c-0.4,0-0.7-0.3-0.7-0.7l0,0V1.5c0-0.8-0.6-1.4-1.4-1.5l0,0H63c-5.4,0.2-7.7,0.7-10.2,2.2
			c-2.3,1.3-3.4,3-3.4,5.2s1.8,4.4,5.3,6.5c0.9,0.6,4.2,2.2,9.8,4.8c3.5,1.7,5.4,3,5.3,4.4C69.6,25.3,67.6,26,63,26H41.9
			c-0.5,0-0.9-0.1-0.9-0.5c0-0.2,0.1-0.4,0.3-0.5l0,0c4.7-2.9,6.3-6.8,6.3-10.3C47.6,8,42.2,0,20.4,0h-19C0.6,0,0,0.6,0,1.4l0,0
			v26.2c0,0.8,0.6,1.4,1.4,1.5l0,0h18.9c0.7,0,1.4,0,2.1,0h47.4c4.3,0,7.7-0.7,10.2-2.2c2.2-1.4,3.4-3,3.4-5.1s-1.8-4.4-5.3-6.5
			c-0.9-0.6-4.2-2.2-9.8-4.8c-3.5-1.7-5.3-3-5.3-4c0-2.2,2.3-3.2,6.8-3.2h16c0.4,0,0.7,0.3,0.7,0.7v19c0,2.8,1.8,6.1,7.3,6.1h44
			c0.6,0,1.2-0.2,1.6-0.7l15.1-20.1C154.6,8.3,154.9,7.8,154.2,7.8 M17.5,26h-4.7c-0.4,0-0.7-0.3-0.7-0.7l0,0V3.9
			c0-0.4,0.3-0.7,0.7-0.7l0,0h4.7c11.5,0,17.7,4.9,17.7,11.4S29,26,17.5,26 M123.2,26.1h-20.3c-2.8,0-3.5-0.8-3.5-3V11.6
			c0-0.4,0.3-0.7,0.7-0.7h11.8c0.4,0,0.8,0.2,1.1,0.5l10.6,14.1C123.7,25.9,123.6,26.1,123.2,26.1"/>
		<path class="st1" d="M65,51.4c-0.5,0.1-1,0.2-1.6,0.2c-0.8,0-1.8-0.1-1.8-1.5c0-1.1,0.6-1.3,1.3-1.4l2-0.3L65,51.4z M67.9,51.2V46
			c0.1-1-0.4-2-1.2-2.5c-0.9-0.4-1.9-0.6-2.9-0.5c-1.4,0-2.9,0.2-4.2,0.7c-0.1,0-0.2,0.1-0.2,0.3v0.1l0.3,1.3c0,0.1,0.1,0.2,0.2,0.2
			H60c1-0.3,2.1-0.5,3.2-0.5c0.5,0,0.9,0,1.3,0.2s0.4,0.5,0.4,1v0.5l-3.3,0.5c-1.4,0.2-2.9,0.5-2.9,3c0,3,2.4,3.2,4.6,3.2
			c0.9,0,1.8-0.1,2.7-0.3C67.4,53,67.9,52.7,67.9,51.2 M56.3,41.6v-2.2c0-0.3-0.2-0.5-0.5-0.5H54c-0.4,0-0.5,0.2-0.5,0.5v2.2
			c0,0.4,0.2,0.5,0.5,0.5h1.8C56.1,42.1,56.3,41.9,56.3,41.6 M56.3,52.9v-9.2c0-0.2-0.1-0.3-0.3-0.3l0,0h-2.3
			c-0.2,0-0.3,0.1-0.3,0.3l0,0v9.2c0,0.2,0.1,0.3,0.3,0.3l0,0H56C56.2,53.2,56.3,53.1,56.3,52.9L56.3,52.9 M51.3,44.8v-1.4
			c0-0.1,0-0.2-0.1-0.3C51.1,43,50.9,43,50.8,43h-0.2c-0.6,0-1.3,0.1-1.8,0.2c-0.8,0.1-1.5,0.2-2.3,0.4c-0.6,0.2-0.8,0.4-0.8,1v8.3
			c0,0.2,0.1,0.3,0.3,0.3h2.3c0.2,0,0.3-0.1,0.3-0.2l0,0v-7.6c0.8-0.1,1.6-0.2,2.4-0.2C51.3,45.2,51.3,45,51.3,44.8 M40.5,47.7h-3.7
			c0-0.5,0-1,0.1-1.5c0.2-0.9,0.6-1.2,1.8-1.2c0.8-0.1,1.6,0.4,1.7,1.2c0,0,0,0,0,0.1c0.1,0.4,0.1,0.9,0.1,1.3L40.5,47.7z M43.3,48
			c0.1-1.3-0.2-2.7-1-3.8c-0.7-0.9-1.9-1.3-3.8-1.3c-3.7,0-4.8,1.6-4.8,5.3s1.6,5.2,5.3,5.2c1.2,0,2.4-0.2,3.5-0.6
			c0.1-0.1,0.2-0.2,0.2-0.3v-0.1l-0.2-1c0-0.2-0.2-0.3-0.3-0.3h-0.1c-0.8,0.3-1.7,0.4-2.6,0.4c-0.7,0-1.4-0.1-2.1-0.4
			c-0.6-0.3-0.9-1-0.8-1.6h6.1c0.4,0,0.5-0.2,0.5-0.5S43.3,48.3,43.3,48 M29.2,54.5c0,1-0.9,1.3-2.1,1.3c-1.4,0-2.2-0.2-2.2-1.2
			s0.8-1,1.4-1h1.3C28.5,53.5,29.2,53.6,29.2,54.5 M28.6,46.5c0,1.2-0.4,1.9-1.7,1.9s-1.7-0.7-1.7-1.9s0.4-1.9,1.7-1.9
			S28.6,45.2,28.6,46.5 M32.8,44.5L32.4,43c0-0.1-0.1-0.2-0.2-0.2c-0.1,0-0.1,0-0.2,0.1c-0.3,0.2-0.7,0.3-1,0.4
			c-0.3,0.1-0.6,0.1-0.9,0.1c-0.2,0-0.5,0-0.7-0.1c-0.8-0.2-1.6-0.3-2.5-0.3c-2.8,0-4.5,0.9-4.5,3.7c-0.1,1.4,0.8,2.6,2.2,2.8
			c-1.2,0.2-2.1,0.4-2.1,1.7c0,1.5,0.9,1.5,1.7,1.6V53c-0.7,0.2-2.1,0.2-2.1,2s1.7,2.4,5,2.4c2.9,0,4.9-0.9,4.9-3.3
			c0-2.2-1.8-2.7-3.5-2.7h-1.8c-1,0-1.4-0.1-1.4-0.7c0-0.5,0.2-0.8,0.9-0.8h1.1c2.3,0,4.1-0.8,4.1-3.1c0-0.7-0.3-1.3-0.8-1.7
			c0.3,0.1,0.5,0.1,0.8,0.1c0.5,0,0.9-0.1,1.3-0.4C32.9,44.8,32.9,44.7,32.8,44.5C32.9,44.6,32.9,44.5,32.8,44.5 M19.6,41.6v-2.2
			c0-0.3-0.2-0.5-0.5-0.5h-1.8c-0.4,0-0.5,0.2-0.5,0.5v2.2c0,0.4,0.2,0.5,0.5,0.5h1.8C19.5,42.1,19.6,41.9,19.6,41.6 M19.6,52.9
			v-9.2c0-0.2-0.1-0.3-0.3-0.3l0,0H17c-0.2,0-0.3,0.1-0.3,0.3l0,0v9.2c0,0.2,0.1,0.3,0.3,0.3l0,0h2.3C19.5,53.2,19.6,53.1,19.6,52.9
			L19.6,52.9 M13.2,52.9V39.5c0-0.3-0.2-0.3-0.4-0.3h-2.2c-0.2,0-0.4,0.1-0.4,0.3l0.2,12H10l-4-12c-0.1-0.2-0.2-0.3-0.4-0.3H0.5
			c-0.2,0-0.3,0.1-0.3,0.3V53c0,0.2,0.1,0.3,0.3,0.3l0,0H3c0.2,0,0.3-0.1,0.3-0.3l0,0L3.1,41.5h0.6l3.9,11.4c0,0.2,0.2,0.3,0.4,0.3
			h5C13.1,53.2,13.3,53.1,13.2,52.9C13.3,52.9,13.3,52.9,13.2,52.9"/>
		<g>
			<path class="st0" d="M12.6,53c0,0.1-0.1,0.3-0.3,0.3H9c-0.2,0-0.3-0.1-0.4-0.2l-4.4-5.8H3.4V53c0,0.2-0.1,0.3-0.3,0.3H0.5
				c-0.2,0-0.3-0.1-0.3-0.3V39.3c0-0.2,0.1-0.3,0.3-0.3h2.6c0.2,0,0.3,0.1,0.3,0.3v5.6h0.9l4.2-5.8C8.6,39.1,8.7,39,8.8,39h0l3.1,0
				c0.1,0,0.3,0.2,0.3,0.3c0,0.1,0,0.1-0.1,0.2L7,46l5.5,6.9C12.5,52.9,12.6,53,12.6,53z"/>
			<path class="st0" d="M22.9,49c0,0.3-0.1,0.5-0.5,0.5h-6.3c0,0.8,0.3,1.3,0.8,1.6c0.5,0.3,1.1,0.4,2.1,0.4c1.2,0,2.2-0.3,2.7-0.4
				c0,0,0,0,0.1,0c0.1,0,0.3,0.1,0.3,0.3l0.3,1.1c0,0.1,0,0.1,0,0.1c0,0.2-0.1,0.3-0.2,0.3c-0.6,0.3-2,0.6-3.6,0.6
				c-3.8,0-5.4-1.4-5.4-5.3c0-3.8,1.1-5.4,4.9-5.4c1.9,0,3.1,0.4,3.9,1.3c0.7,0.9,1,2.1,1,3.9C22.9,48.3,22.9,48.7,22.9,49z
				 M19.9,47.6c0-0.5,0-0.9-0.1-1.4c-0.2-1-0.8-1.3-1.7-1.3c-1.2,0-1.7,0.4-1.8,1.3c-0.1,0.5-0.1,1-0.1,1.6h3.8V47.6z"/>
			<path class="st0" d="M34,53.3h-2.4c-0.2,0-0.3-0.1-0.3-0.3v-6.7c0-1.1-0.4-1.4-1.3-1.4c-0.9,0-2,0.3-2,0.3V53
				c0,0.2-0.1,0.3-0.3,0.3h-2.4c-0.2,0-0.3-0.1-0.3-0.3v-8.4c0-0.7,0.5-1,1.6-1.2c1-0.2,2.5-0.4,3.7-0.4c2.5,0,3.9,0.6,3.9,3V53
				C34.3,53.2,34.2,53.3,34,53.3z"/>
			<path class="st0" d="M42.8,54.4c-0.5,1.8-1.2,3-3.8,3c-1.3,0-1.7-0.1-2-0.1c-0.2,0-0.3-0.2-0.3-0.3v0l0-1.2
				c0-0.2,0.1-0.4,0.3-0.4h0c0.3,0,0.7,0,1.1,0c1,0,1.5-0.3,1.7-1.1l0.3-0.9h-1.5c-0.2,0-0.3-0.1-0.3-0.3l-2.7-9.4
				c0-0.1,0-0.1,0-0.1c0-0.2,0.1-0.3,0.3-0.3h2.2c0.3,0,0.4,0.1,0.4,0.3l1.8,8h0.5l1.6-8c0.1-0.3,0.2-0.3,0.4-0.3h2.3
				c0.2,0,0.4,0.2,0.4,0.3c0,0,0,0.1,0,0.1L42.8,54.4z"/>
			<path class="st0" d="M54.4,53.3c-0.7,0.2-1.6,0.3-2.7,0.3c-2.2,0-4.7-0.3-4.7-3.3c0-2.5,1.6-2.8,3-3l3.4-0.5v-0.5
				c0-0.5-0.1-0.9-0.5-1c-0.3-0.1-0.7-0.2-1.4-0.2c-1.3,0-2.7,0.4-3.3,0.5c0,0-0.1,0-0.1,0c-0.1,0-0.2-0.1-0.2-0.2L47.5,44
				c0,0,0-0.1,0-0.1c0-0.2,0.1-0.3,0.2-0.3c0.4-0.2,2.2-0.7,4.3-0.7c1.4,0,2.3,0.2,2.9,0.6c1,0.5,1.2,1.4,1.2,2.5v5.3
				C56.2,52.7,55.7,53,54.4,53.3z M53.3,48.5l-2.1,0.3c-0.7,0.1-1.4,0.3-1.4,1.4c0,1.4,1.1,1.5,1.9,1.5c0.7,0,1.3-0.1,1.6-0.2V48.5z
				"/>
		</g>
	</g>
</g>
</svg>
